<svg width="250" height="350" viewBox="0 0 250 350" xmlns="http://www.w3.org/2000/svg">
  <rect width="250" height="350" rx="15" fill="#FFFFFF" stroke="#2D245F" stroke-width="2"/>
  
  <rect x="10" y="10" width="230" height="330" rx="10" fill="none" stroke="#2D245F" stroke-width="1" stroke-dasharray="2,2"/>

  <path d="M75 30 L175 30 L220 75 L220 275 L175 320 L75 320 L30 275 L30 75 Z" 
        fill="none" stroke="#2D245F" stroke-width="3"/>
  
  <defs>
    <pattern id="scrollWork" x="0" y="0" width="40" height="40" patternUnits="userSpaceOnUse">
      <path d="M20 0 Q25 10 20 20 T20 40 M0 20 Q10 15 20 20 T40 20" 
            fill="none" stroke="#2D245F" stroke-width="0.5" opacity="0.6"/>
      <circle cx="20" cy="20" r="2" fill="#2D245F" opacity="0.4"/>
    </pattern>
  </defs>
  
  <path d="M75 35 L175 35 L215 75 L215 275 L175 315 L75 315 L35 275 L35 75 Z" 
        fill="url(#scrollWork)" />

  <g transform="translate(125, 175)">
    <path d="M-30 -12 L-12 -30 L12 -30 L30 -12 L30 12 L12 30 L-12 30 L-30 12 Z" 
          fill="#FFFFFF" stroke="#2D245F" stroke-width="2"/>
    <circle r="8" fill="none" stroke="#2D245F" stroke-width="1.5"/>
    <path d="M0 -15 L0 15 M-15 0 L15 0 M-10 -10 L10 10 M-10 10 L10 -10" 
          stroke="#2D245F" stroke-width="1"/>
  </g>

  <circle cx="125" cy="50" r="5" fill="#2D245F"/>
  <circle cx="125" cy="300" r="5" fill="#2D245F"/>
</svg>
